<svg xmlns="http://www.w3.org/2000/svg" width="54" height="54" viewBox="0 0 54 54" fill="none">
  <circle cx="27" cy="27" r="26" stroke="url(#paint0_linear_121_213)" stroke-width="2"/>
  <path d="M15.3401 22.3618C15.7524 21.9233 16.3976 21.8834 16.8522 22.2422L16.9824 22.3618L27 33.0172L37.0176 22.3618C37.4298 21.9233 38.075 21.8834 38.5296 22.2422L38.6599 22.3618C39.0721 22.8004 39.1096 23.4866 38.7723 23.9702L38.6599 24.1088L27.8212 35.6382C27.4089 36.0767 26.7637 36.1166 26.3091 35.7578L26.1788 35.6382L15.3401 24.1088C14.8866 23.6264 14.8866 22.8442 15.3401 22.3618Z" fill="url(#paint1_linear_121_213)"/>
  <defs>
    <linearGradient id="paint0_linear_121_213" x1="27" y1="0" x2="27" y2="54" gradientUnits="userSpaceOnUse">
      <stop stop-color="#232526"/>
      <stop offset="1" stop-color="#414345"/>
    </linearGradient>
    <linearGradient id="paint1_linear_121_213" x1="15" y1="29" x2="39" y2="29" gradientUnits="userSpaceOnUse">
      <stop stop-color="#232526"/>
      <stop offset="1" stop-color="#414345"/>
    </linearGradient>
  </defs>
</svg>