<svg xmlns="http://www.w3.org/2000/svg" width="24" height="24" viewBox="0 0 24 24" fill="none">
  <path d="M20.1599 12.7302C20.825 12.0661 21.3322 11.2609 21.6441 10.3743C21.956 9.48776 22.0646 8.5424 21.9619 7.60818C21.8591 6.67397 21.5477 5.7748 21.0506 4.97718C20.5535 4.17956 19.8834 3.5039 19.0899 3.00017C17.0799 1.67017 14.3899 1.66017 12.3599 2.97017C10.5999 4.10017 9.62993 5.86017 9.45993 7.68017C9.32993 9.00017 8.82993 10.2302 7.90993 11.1502L7.87993 11.1802C6.71993 12.3402 6.71993 14.1102 7.80993 15.1902L8.79993 16.1802C9.32386 16.7037 10.0342 16.9979 10.7749 16.9979C11.5156 16.9979 12.226 16.7037 12.7499 16.1802C13.7199 15.2102 14.9999 14.6802 16.3899 14.5302C17.7599 14.3802 19.0999 13.7802 20.1599 12.7302ZM6.25993 19.8602C6.52993 20.4202 6.43993 21.1002 5.96993 21.5602C5.76638 21.7668 5.50694 21.9095 5.22344 21.9708C4.93995 22.0321 4.64472 22.0094 4.37397 21.9053C4.10323 21.8013 3.86874 21.6205 3.69927 21.3851C3.5298 21.1497 3.43272 20.8699 3.41993 20.5802C3.13017 20.5674 2.85043 20.4703 2.61504 20.3008C2.37964 20.1314 2.19883 19.8969 2.09478 19.6261C1.99073 19.3554 1.96796 19.0602 2.02927 18.7767C2.09059 18.4932 2.23331 18.2337 2.43993 18.0302C2.89993 17.5702 3.58993 17.4702 4.13993 17.7402L6.61993 15.3102C6.75993 15.5002 6.91993 15.7202 7.09993 15.9002L8.08993 16.8902C8.29993 17.0902 8.49994 17.2602 8.75993 17.4102L6.25993 19.8602Z" fill="white"/>
</svg>