<svg xmlns="http://www.w3.org/2000/svg" width="43" height="35" viewBox="0 0 43 35" fill="none">
  <path fill-rule="evenodd" clip-rule="evenodd" d="M34.902 0C39.366 0 42.998 3.596 42.998 8.014L43 13.202C43 13.598 42.842 13.982 42.56 14.262C42.28 14.544 41.898 14.702 41.5 14.702C39.926 14.702 38.646 15.958 38.646 17.502C38.646 19.046 39.926 20.302 41.5 20.302C42.328 20.302 43 20.974 43 21.802V26.986C43 31.404 39.368 35 34.904 35H8.096C3.632 35 0 31.404 0 26.986V21.802C0 20.974 0.672 20.302 1.5 20.302C3.074 20.302 4.354 19.046 4.354 17.502C4.354 16.002 3.126 14.87 1.5 14.87C1.102 14.87 0.72 14.712 0.44 14.43C0.158 14.15 0 13.766 0 13.37L0.002 8.014C0.002 3.596 3.634 0 8.098 0H34.902ZM34.902 3H26.698L26.6992 6.8424C26.6992 7.6704 26.0272 8.3424 25.1992 8.3424C24.3712 8.3424 23.6992 7.6704 23.6992 6.8424L23.698 3H8.098C5.288 3 3.002 5.25 3.002 8.014L3 12.05C5.534 12.672 7.354 14.844 7.354 17.502C7.354 20.186 5.502 22.45 3 23.108V26.986C3 29.75 5.286 32 8.096 32H23.698L23.6992 29.023C23.6992 28.193 24.3712 27.523 25.1992 27.523C26.0272 27.523 26.6992 28.193 26.6992 29.023L26.698 32H34.904C37.714 32 40 29.75 40 26.986V23.108C37.498 22.45 35.646 20.186 35.646 17.502C35.646 14.816 37.496 12.554 40 11.896L39.998 8.014C39.998 5.25 37.712 3 34.902 3ZM25.1992 11.009C26.0272 11.009 26.6992 11.681 26.6992 12.509V22.151C26.6992 22.979 26.0272 23.651 25.1992 23.651C24.3712 23.651 23.6992 22.979 23.6992 22.151V12.509C23.6992 11.681 24.3712 11.009 25.1992 11.009Z" fill="#4A4A4A"/>
</svg>