<svg xmlns="http://www.w3.org/2000/svg" width="24" height="24" viewBox="0 0 24 24" fill="none">
  <path fill-rule="evenodd" clip-rule="evenodd" d="M14.0078 19.003L14.0138 17C14.0138 16.7341 14.1194 16.4791 14.3074 16.2911C14.4954 16.1031 14.7504 15.9975 15.0163 15.9975C15.2821 15.9975 15.5371 16.1031 15.7251 16.2911C15.9131 16.4791 16.0188 16.7341 16.0188 17V18.977C16.0188 19.458 16.0188 19.699 16.1728 19.847C16.3278 19.994 16.5628 19.984 17.0358 19.964C18.8988 19.885 20.0438 19.634 20.8498 18.828C21.6598 18.022 21.9108 16.877 21.9898 15.011C22.0048 14.641 22.0128 14.455 21.9438 14.332C21.8738 14.209 21.5988 14.055 21.0468 13.746C20.7358 13.5727 20.4768 13.3194 20.2965 13.0125C20.1162 12.7055 20.0212 12.356 20.0212 12C20.0212 11.644 20.1162 11.2945 20.2965 10.9875C20.4768 10.6806 20.7358 10.4273 21.0468 10.254C21.5988 9.946 21.8748 9.791 21.9438 9.668C22.0128 9.545 22.0048 9.36 21.9888 8.989C21.9108 7.123 21.6588 5.979 20.8498 5.172C19.9728 4.296 18.6948 4.075 16.5278 4.019C16.4614 4.01726 16.3954 4.02884 16.3336 4.05303C16.2718 4.07723 16.2154 4.11357 16.1679 4.15989C16.1204 4.20622 16.0826 4.26159 16.0568 4.32275C16.031 4.38392 16.0177 4.44962 16.0178 4.516V7C16.0178 7.26588 15.9121 7.52087 15.7241 7.70887C15.5361 7.89688 15.2811 8.0025 15.0153 8.0025C14.7494 8.0025 14.4944 7.89688 14.3064 7.70887C14.1184 7.52087 14.0128 7.26588 14.0128 7L14.0058 4.499C14.0055 4.36657 13.9527 4.23964 13.859 4.14609C13.7652 4.05254 13.6382 4 13.5058 4H9.99377C6.21377 4 4.32377 4 3.14877 5.172C2.33877 5.978 2.08777 7.123 2.00877 8.989C1.99377 9.359 1.98577 9.545 2.05477 9.668C2.12477 9.791 2.39977 9.946 2.95177 10.254C3.2627 10.4273 3.5217 10.6806 3.70201 10.9875C3.88231 11.2945 3.97738 11.644 3.97738 12C3.97738 12.356 3.88231 12.7055 3.70201 13.0125C3.5217 13.3194 3.2627 13.5727 2.95177 13.746C2.39977 14.055 2.12377 14.209 2.05477 14.332C1.98577 14.455 1.99377 14.64 2.00977 15.01C2.08777 16.877 2.33977 18.022 3.14877 18.828C4.32377 20 6.21377 20 9.99477 20H13.0048C13.4768 20 13.7118 20 13.8588 19.854C14.0058 19.708 14.0068 19.474 14.0078 19.003ZM16.0178 13V11C16.0178 10.7341 15.9121 10.4791 15.7241 10.2911C15.5361 10.1031 15.2811 9.9975 15.0153 9.9975C14.7494 9.9975 14.4944 10.1031 14.3064 10.2911C14.1184 10.4791 14.0128 10.7341 14.0128 11V13C14.0128 13.266 14.1184 13.5211 14.3065 13.7092C14.4946 13.8973 14.7498 14.003 15.0158 14.003C15.2818 14.003 15.5369 13.8973 15.725 13.7092C15.9131 13.5211 16.0178 13.266 16.0178 13Z" fill="white"/>
</svg>