<svg xmlns="http://www.w3.org/2000/svg" width="36" height="40" viewBox="0 0 36 40" fill="none">
  <path d="M16.875 7.5C16.5766 7.5 16.2905 7.6317 16.0795 7.86612C15.8685 8.10054 15.75 8.41848 15.75 8.75C15.75 9.08152 15.8685 9.39946 16.0795 9.63388C16.2905 9.8683 16.5766 10 16.875 10H19.125C19.4234 10 19.7095 9.8683 19.9205 9.63388C20.1315 9.39946 20.25 9.08152 20.25 8.75C20.25 8.41848 20.1315 8.10054 19.9205 7.86612C19.7095 7.6317 19.4234 7.5 19.125 7.5H16.875ZM11.025 2.5C10.1681 2.5 9.31964 2.68753 8.52799 3.05187C7.73634 3.41622 7.01703 3.95025 6.41113 4.62348C5.18745 5.98311 4.5 7.82718 4.5 9.75V15H3.375C3.07663 15 2.79048 15.1317 2.5795 15.3661C2.36853 15.6005 2.25 15.9185 2.25 16.25C2.25 16.5815 2.36853 16.8995 2.5795 17.1339C2.79048 17.3683 3.07663 17.5 3.375 17.5H4.5V34.25C4.5 35.112 4.80817 35.9386 5.35671 36.5481C5.90526 37.1576 6.64924 37.5 7.425 37.5H10.575C10.9591 37.5 11.3395 37.4159 11.6943 37.2526C12.0492 37.0893 12.3717 36.8499 12.6433 36.5481C12.9149 36.2463 13.1304 35.888 13.2773 35.4937C13.4243 35.0994 13.5 34.6768 13.5 34.25V32.5H22.5V34.25C22.5 35.112 22.8082 35.9386 23.3567 36.5481C23.9053 37.1576 24.6492 37.5 25.425 37.5H28.575C29.3508 37.5 30.0947 37.1576 30.6433 36.5481C31.1918 35.9386 31.5 35.112 31.5 34.25V17.5H32.625C32.9234 17.5 33.2095 17.3683 33.4205 17.1339C33.6315 16.8995 33.75 16.5815 33.75 16.25C33.75 15.9185 33.6315 15.6005 33.4205 15.3661C33.2095 15.1317 32.9234 15 32.625 15H31.5V9.75C31.5 7.82718 30.8125 5.98311 29.5889 4.62348C28.3652 3.26384 26.7055 2.5 24.975 2.5H11.025ZM29.25 9.75V20H6.75V9.75C6.75 7.125 8.6625 5 11.025 5H24.975C27.3375 5 29.25 7.125 29.25 9.75ZM29.25 32.5V34.25C29.25 34.3485 29.2325 34.446 29.1986 34.537C29.1647 34.628 29.115 34.7107 29.0523 34.7803C28.9896 34.85 28.9152 34.9052 28.8333 34.9429C28.7514 34.9806 28.6636 35 28.575 35H25.425C25.3364 35 25.2486 34.9806 25.1667 34.9429C25.0848 34.9052 25.0104 34.85 24.9477 34.7803C24.885 34.7107 24.8353 34.628 24.8014 34.537C24.7675 34.446 24.75 34.3485 24.75 34.25V32.5H29.25ZM11.25 32.5V34.25C11.25 34.3485 11.2325 34.446 11.1986 34.537C11.1647 34.628 11.115 34.7107 11.0523 34.7803C10.9896 34.85 10.9152 34.9052 10.8333 34.9429C10.7514 34.9806 10.6636 35 10.575 35H7.425C7.33636 35 7.24858 34.9806 7.16669 34.9429C7.08479 34.9052 7.01038 34.85 6.9477 34.7803C6.88502 34.7107 6.8353 34.628 6.80138 34.537C6.76746 34.446 6.75 34.3485 6.75 34.25V32.5H11.25ZM14.625 25.625C14.625 26.1223 14.4472 26.5992 14.1307 26.9508C13.8143 27.3025 13.3851 27.5 12.9375 27.5C12.4899 27.5 12.0607 27.3025 11.7443 26.9508C11.4278 26.5992 11.25 26.1223 11.25 25.625C11.25 25.1277 11.4278 24.6508 11.7443 24.2992C12.0607 23.9475 12.4899 23.75 12.9375 23.75C13.3851 23.75 13.8143 23.9475 14.1307 24.2992C14.4472 24.6508 14.625 25.1277 14.625 25.625ZM23.0625 27.5C22.6149 27.5 22.1857 27.3025 21.8693 26.9508C21.5528 26.5992 21.375 26.1223 21.375 25.625C21.375 25.1277 21.5528 24.6508 21.8693 24.2992C22.1857 23.9475 22.6149 23.75 23.0625 23.75C23.5101 23.75 23.9393 23.9475 24.2557 24.2992C24.5722 24.6508 24.75 25.1277 24.75 25.625C24.75 26.1223 24.5722 26.5992 24.2557 26.9508C23.9393 27.3025 23.5101 27.5 23.0625 27.5Z" fill="#4A4A4A"/>
</svg>